<?xml version="1.0" encoding="UTF-8"?>
<svg viewBox="0 0 744.09447 1052.362179" xmlns="http://www.w3.org/2000/svg">
 <defs>
  <filter id="c">
   <feGaussianBlur stdDeviation="2.643"/>
  </filter>
  <filter id="f"/>
  <filter id="e" x="-.1641" y="-.1994" width="1.3281" height="1.3988">
   <feGaussianBlur stdDeviation="2.964"/>
  </filter>
  <filter id="d" x="-.1235" y="-.0133" width="1.247" height="1.0266">
   <feGaussianBlur stdDeviation=".619"/>
  </filter>
  <linearGradient id="b" x1="133.98" x2="148.06" y1="202.79" y2="275.13" gradientUnits="userSpaceOnUse">
   <stop stop-color="#fff" offset="0"/>
   <stop stop-color="#fff" stop-opacity="0" offset="1"/>
  </linearGradient>
  <linearGradient id="a" x1="135.04" x2="150.58" y1="207.32" y2="335.13" gradientUnits="userSpaceOnUse">
   <stop stop-color="#c8ccc9" offset="0"/>
   <stop stop-color="#a9a0a2" offset="1"/>
  </linearGradient>
 </defs>
 <g transform="matrix(2.1658 -.33029 .33029 2.1658 -117.36 -326.16)">
  <path d="m96.538 215.46c-7.3642 0-13.438 6.042-13.438 13.406v100.97c0 7.3642 6.0733 13.438 13.438 13.438h109.59c7.3642 0 13.406-6.0733 13.406-13.438v-0.2187l-5.75-100.75v-0.2188h-0.0312c-0.122-7.2619-6.086-13.188-13.375-13.188h-103.84z" filter="url(#c)"/>
  <path d="m96.321 207.32c-7.3642 0-13.438 6.042-13.438 13.406v100.97c0 7.3642 6.0733 13.438 13.438 13.438l109.59 4.0696c7.3642 0 13.406-6.0733 13.406-13.438v-0.2187l-5.75-104.82v-0.2188h-0.0312c-0.122-7.2619-6.086-13.188-13.375-13.188h-103.84l-5e-5 -5e-5z" fill="none" stroke="#b3b3b3"/>
  <path d="m96.059 211.5c-7.3642 0-13.438 6.1039-13.438 13.544v102c0 7.4396 6.0733 13.575 13.438 13.575h109.59c7.3642 0 13.406-6.1354 13.406-13.575v-0.221l-5.75-101.78v-0.221h-0.0312c-0.122-7.3363-6.086-13.322-13.375-13.322h-103.84z" fill="#5c6260"/>
  <path d="m95.798 207.32c-7.3642 0-13.438 6.042-13.438 13.406v100.97c0 7.3642 6.0733 13.438 13.438 13.438h109.59c7.3642 0 13.406-6.0733 13.406-13.438v-0.2187l-5.75-100.75v-0.2188h-0.0312c-0.122-7.2619-6.086-13.188-13.375-13.188h-103.84z" fill="#717372"/>
  <path d="m95.798 207.32c-7.3642 0-13.438 6.042-13.438 13.406v100.97c0 7.3642 6.0733 13.438 13.438 13.438h109.59c7.3642 0 13.406-6.0733 13.406-13.438v-0.2187l-5.75-100.75v-0.2188h-0.0312c-0.122-7.2619-6.086-13.188-13.375-13.188h-103.84zm0 8h103.84c3.0706 0 5.4063 2.3356 5.4063 5.4063v0.2187l5.7813 100.75h-0.0312c0 3.0706-2.3356 5.4375-5.4063 5.4375h-109.59c-3.0706 0-5.4375-2.3669-5.4375-5.4375v-100.97c0-3.0706 2.3669-5.4063 5.4375-5.4063z" fill="#ccc"/>
  <path d="m95.691 217.67h101.81c3.0106 0 5.3006 2.2865 5.3006 5.2924v0.2142l5.6683 98.628h-0.0306c0 3.006-2.29 5.323-5.3006 5.323h-110.6c-3.0106 0-5.3312-2.317-5.3312-5.323l3.1447-98.843c0-3.0059 2.3206-5.2924 5.3312-5.2924l-4e-5 -2e-5z" fill="#121212"/>
  <path d="m98.535 219.85c-3.2233 0-5.7813 2.5259-5.7813 5.75l-1.4768 60.375c-3e-3 0.5491 0.7502 0.9258 1.1875 0.5938 36.858-27.527 77.138-35.487 108.82-39.062 0.3842-0.0417 0.6964-0.4281 0.6563-0.8125l-1.2143-20.875v-0.2187c0-3.2241-2.558-5.75-5.7813-5.75h-96.406v-5e-5z" fill="url(#b)"/>
  <path d="m95.798 207.32c-7.3642 0-13.438 6.042-13.438 13.406l-3.3297 100.97c0 7.3642 6.0733 13.438 13.438 13.438h112.92c7.3642 0 13.406-6.0733 13.406-13.438v-0.2187l-5.75-100.75v-0.2188h-0.0312c-0.122-7.2619-6.086-13.188-13.375-13.188h-103.84l-5e-5 -5e-5zm0 8h103.84c3.0706 0 5.4063 2.3356 5.4063 5.4063v0.2187l5.7813 100.75h-0.0312c0 3.0706-2.3356 5.4375-5.4063 5.4375h-112.92c-3.0706 0-5.4375-2.3669-5.4375-5.4375l3.3297-100.97c0-3.0706 2.3669-5.4063 5.4375-5.4063l-5e-5 5e-5z" fill="url(#a)"/>
  <path d="m96.409 207.5c-7.0842 0.37-9.5239 3.3979-12.264 8.3204 2.364-4.7544 5.9782-7.2904 12.106-7.3829h102.74c7.3762 0 13.412 6.0585 13.536 13.469h0.0316v0.2188l0.1581-1.2188v-0.2188h-0.0316c-0.1235-7.2619-6.1592-13.188-13.536-13.188h-102.74z" fill="#fff" fill-opacity=".748"/>
  <path d="m78.981 320.28v1.0313c0 7.3642 6.0733 13.438 13.438 13.438h112.7c7.3642 0 13.406-6.0733 13.406-13.438v-0.2187l-0.0312-0.375c-0.234 7.1654-6.1574 13.486-13.375 13.486h-112.7c-7.3642 0-13.438-6.5588-13.438-13.923l-5e-5 -5e-5z" fill="#fff" filter="url(#f)"/>
  <path transform="matrix(.8695 0 0 .91398 -8.1822 11.572)" d="m151.02 273.81h26.684v4.4473h-26.684v-4.4473zm-16.671-2.9034v-7.2012l17.863-7.0231-17.863-6.9468v-7.1504l25.599 11.069v6.1071l-25.599 11.145" fill="#fff" filter="url(#e)"/>
  <path d="m122.9 261.36h23.201v4.0647h-23.201v-4.0647zm-14.496-2.6537v-6.5818l15.532-6.419-15.532-6.3492v-6.5353l22.258 10.117v5.5817l-22.258 10.187" fill="#fff"/>
  <path d="m199.7 214.97c3.0706 0 5.4063 2.3356 5.4063 5.4063v0.2187l5.7813 100.75h-0.0312c0 3.0706-2.3356 5.4375-5.4063 5.4375h0.8438c3.0706 0 5.4063-2.3669 5.4063-5.4375h0.0312l-5.7813-100.75v-0.2187c0-3.0706-2.3356-5.4063-5.4063-5.4063h-0.8438z" fill="#fff" filter="url(#d)"/>
 </g>
</svg>
